<?xml version="1.0" encoding="UTF-8" standalone="no"?>
<!-- Created with Inkscape (http://www.inkscape.org/) -->

<svg
   width="102.05518mm"
   height="102.05518mm"
   viewBox="0 0 102.05518 102.05518"
   version="1.1"
   id="svg1"
   xmlns="http://www.w3.org/2000/svg"
   xmlns:svg="http://www.w3.org/2000/svg">
  <defs
     id="defs1" />
  <g
     id="layer1"
     transform="translate(-53.904409,-97.472407)">
    <g
       transform="translate(104.932,148.5)"
       id="g2"
       style="fill:#000000">
      <path
         style="fill:#000000;stroke:#000000;stroke-width:0.264583"
         d="m 48.3963,-1.34508 1.2505,0.37014 1.2485,0.47904 v 0.9918 l -1.2485,0.47904 -1.2505,0.37014 -0.0437,1.11111 1.2176,0.46712 1.2071,0.57552 -0.0778,0.98874 -1.2823,0.3796 -1.2757,0.27089 -0.1307,1.10426 1.1772,0.56121 1.1583,0.66846 -0.1551,0.97959 -1.3082,0.27782 -1.293,0.16996 -0.2169,1.0906 1.1295,0.65184 1.1023,0.7573 -0.2316,0.9644 -1.3259,0.1743 -1.3024,0.068 -0.3018,1.0702 1.075,0.7385 1.0394,0.8414 -0.3065,0.9432 -1.3355,0.0698 -1.3037,-0.0344 -0.3849,1.0433 1.0137,0.8205 0.9702,0.9204 -0.3795,0.9163 -1.3369,-0.0353 -1.2969,-0.1366 -0.4656,1.0099 0.9462,0.8975 0.895,0.9936 -0.4503,0.8838 -1.3299,-0.1401 -1.2823,-0.2379 -0.5433,0.9702 0.8728,0.969 0.8143,1.0608 -0.5182,0.8457 -1.3149,-0.244 -1.2596,-0.3378 -0.6178,0.9246 0.7941,1.0345 0.7286,1.1214 -0.583,0.8024 -1.2917,-0.3463 -1.2292,-0.4356 -0.6885,0.8732 0.7106,1.0937 0.6383,1.1751 -0.6441,0.7542 -1.2606,-0.4467 -1.1913,-0.5306 -0.7548,0.8165 0.6226,1.146 0.5441,1.2216 -0.7013,0.7013 -1.2216,-0.5441 -1.146,-0.6226 -0.8165,0.7548 0.5306,1.1913 0.4467,1.2606 -0.7542,0.6441 -1.1751,-0.6383 -1.0937,-0.7106 -0.8732,0.6885 0.4356,1.2292 0.3463,1.2917 -0.8024,0.583 -1.1214,-0.7286 -1.0345,-0.7941 -0.9246,0.6178 0.3378,1.2596 0.244,1.3149 -0.8457,0.5182 -1.0608,-0.8143 -0.969,-0.8728 -0.9702,0.5433 0.2379,1.2823 0.1401,1.3299 -0.8838,0.4503 -0.9936,-0.895 -0.8975,-0.9462 -1.0099,0.4656 0.1366,1.2969 0.0353,1.3369 -0.9163,0.3795 -0.9204,-0.9702 -0.8205,-1.0137 -1.0433,0.3849 0.0344,1.3037 -0.0698,1.3355 -0.9432,0.3065 -0.8414,-1.0394 -0.7385,-1.075 -1.0702,0.3018 -0.068,1.3024 -0.1743,1.3259 -0.9644,0.2316 L 10.6418,48.5026 9.98996,47.3731 8.89936,47.59 8.7294,48.883 8.45158,50.1912 7.47199,50.3463 6.80353,49.188 6.24232,48.0108 5.13806,48.1415 4.86717,49.4172 4.48757,50.6995 3.49883,50.7773 2.92331,49.5702 2.45619,48.3526 1.34508,48.3963 0.97494,49.6468 0.4959,50.8953 h -0.9918 l -0.47904,-1.2485 -0.37014,-1.2505 -1.11111,-0.0437 -0.46712,1.2176 -0.57552,1.2071 -0.98874,-0.0778 -0.3796,-1.2823 -0.27089,-1.2757 -1.10426,-0.1307 -0.56121,1.1772 -0.66846,1.1583 -0.97959,-0.1551 -0.27782,-1.3082 -0.16996,-1.293 -1.0906,-0.2169 -0.65184,1.1295 -0.7573,1.1023 -0.9644,-0.2316 -0.1743,-1.3259 -0.068,-1.3024 -1.0702,-0.3018 -0.7385,1.075 -0.8414,1.0394 -0.9432,-0.3065 -0.0698,-1.3355 0.0344,-1.3037 -1.0433,-0.3849 -0.8205,1.0137 -0.9204,0.9702 -0.9163,-0.3795 0.0353,-1.3369 0.1366,-1.2969 -1.0099,-0.4656 -0.8975,0.9462 -0.9936,0.895 -0.8838,-0.4503 0.1401,-1.3299 0.2379,-1.2823 -0.9702,-0.5433 -0.969,0.8728 -1.0608,0.8143 -0.8457,-0.5182 0.244,-1.3149 0.3378,-1.2596 -0.9246,-0.6178 -1.0345,0.7941 -1.1214,0.7286 -0.8024,-0.583 0.3463,-1.2917 0.4356,-1.2292 -0.8732,-0.6885 -1.0937,0.7106 -1.1751,0.6383 -0.7542,-0.6441 0.4467,-1.2606 0.5306,-1.1913 -0.8165,-0.7548 -1.146,0.6226 -1.2216,0.5441 -0.7013,-0.7013 0.5441,-1.2216 0.6226,-1.146 -0.7548,-0.8165 -1.1913,0.5306 -1.2606,0.4467 -0.6441,-0.7542 0.6383,-1.1751 0.7106,-1.0937 -0.6885,-0.8732 -1.2292,0.4356 -1.2917,0.3463 -0.583,-0.8024 0.7286,-1.1214 0.7941,-1.0345 -0.6178,-0.9246 -1.2596,0.3378 -1.3149,0.244 -0.5182,-0.8457 0.8143,-1.0608 0.8728,-0.969 -0.5433,-0.9702 -1.2823,0.2379 -1.3299,0.1401 -0.4503,-0.8838 0.895,-0.9936 0.9462,-0.8975 -0.4656,-1.0099 -1.2969,0.1366 -1.3369,0.0353 -0.3795,-0.9163 0.9702,-0.9204 1.0137,-0.8205 -0.3849,-1.0433 -1.3037,0.0344 -1.3355,-0.0698 -0.3065,-0.9432 1.0394,-0.8414 1.075,-0.7385 -0.3018,-1.0702 -1.3024,-0.068 -1.3259,-0.1743 -0.2316,-0.9644 1.1023,-0.7573 1.1295,-0.65184 -0.2169,-1.0906 -1.293,-0.16996 -1.3082,-0.27782 -0.1551,-0.97959 1.1583,-0.66846 1.1772,-0.56121 -0.1307,-1.10426 -1.2757,-0.27089 -1.2823,-0.3796 -0.0778,-0.98874 1.2071,-0.57552 1.2176,-0.46712 -0.0437,-1.11111 -1.2505,-0.37014 -1.2485,-0.47904 v -0.9918 l 1.2485,-0.47904 1.2505,-0.37014 0.0437,-1.11111 -1.2176,-0.46712 -1.2071,-0.57552 0.0778,-0.98874 1.2823,-0.3796 1.2757,-0.27089 0.1307,-1.10426 -1.1772,-0.56121 -1.1583,-0.66846 0.1551,-0.97959 1.3082,-0.27782 1.293,-0.16996 0.2169,-1.0906 -1.1295,-0.65184 -1.1023,-0.7573 0.2316,-0.9644 1.3259,-0.1743 1.3024,-0.068 0.3018,-1.0702 -1.075,-0.7385 -1.0394,-0.8414 0.3065,-0.9432 1.3355,-0.0698 1.3037,0.0344 0.3849,-1.0433 -1.0137,-0.8205 -0.9702,-0.9204 0.3795,-0.9163 1.3369,0.0353 1.2969,0.1366 0.4656,-1.0099 -0.9462,-0.8975 -0.895,-0.9936 0.4503,-0.8838 1.3299,0.1401 1.2823,0.2379 0.5433,-0.9702 -0.8728,-0.969 -0.8143,-1.0608 0.5182,-0.8457 1.3149,0.244 1.2596,0.3378 0.6178,-0.9246 -0.7941,-1.0345 -0.7286,-1.1214 0.583,-0.8024 1.2917,0.3463 1.2292,0.4356 0.6885,-0.8732 -0.7106,-1.0937 -0.6383,-1.1751 0.6441,-0.7542 1.2606,0.4467 1.1913,0.5306 0.7548,-0.8165 -0.6226,-1.146 -0.5441,-1.2216 0.7013,-0.7013 1.2216,0.5441 1.146,0.6226 0.8165,-0.7548 -0.5306,-1.1913 -0.4467,-1.2606 0.7542,-0.6441 1.1751,0.6383 1.0937,0.7106 0.8732,-0.6885 -0.4356,-1.2292 -0.3463,-1.2917 0.8024,-0.583 1.1214,0.7286 1.0345,0.7941 0.9246,-0.6178 -0.3378,-1.2596 -0.244,-1.3149 0.8457,-0.5182 1.0608,0.8143 0.969,0.8728 0.9702,-0.5433 -0.2379,-1.2823 -0.1401,-1.3299 0.8838,-0.4503 0.9936,0.895 0.8975,0.9462 1.0099,-0.4656 -0.1366,-1.2969 -0.0353,-1.3369 0.9163,-0.3795 0.9204,0.9702 0.8205,1.0137 1.0433,-0.3849 -0.0344,-1.3037 0.0698,-1.3355 0.9432,-0.3065 0.8414,1.0394 0.7385,1.075 1.0702,-0.3018 0.068,-1.3024 0.1743,-1.3259 0.9644,-0.2316 0.7573,1.1023 0.65184,1.1295 1.0906,-0.2169 0.16996,-1.293 0.27782,-1.3082 0.97959,-0.1551 0.66846,1.1583 0.56121,1.1772 1.10426,-0.1307 0.27089,-1.2757 0.3796,-1.2823 0.98874,-0.0778 0.57552,1.2071 0.46712,1.2176 1.11111,-0.0437 0.37014,-1.2505 0.47904,-1.2485 h 0.9918 l 0.47904,1.2485 0.37014,1.2505 1.11111,0.0437 0.46712,-1.2176 0.57552,-1.2071 0.98874,0.0778 0.3796,1.2823 0.27089,1.2757 1.10426,0.1307 0.56121,-1.1772 0.66846,-1.1583 0.97959,0.1551 0.27782,1.3082 0.16996,1.293 1.0906,0.2169 0.65184,-1.1295 0.7573,-1.1023 0.9644,0.2316 0.1743,1.3259 0.068,1.3024 1.0702,0.3018 0.7385,-1.075 0.8414,-1.0394 0.9432,0.3065 0.0698,1.3355 -0.0344,1.3037 1.0433,0.3849 0.8205,-1.0137 0.9204,-0.9702 0.9163,0.3795 -0.0353,1.3369 -0.1366,1.2969 1.0099,0.4656 0.8975,-0.9462 0.9936,-0.895 0.8838,0.4503 -0.1401,1.3299 -0.2379,1.2823 0.9702,0.5433 0.969,-0.8728 1.0608,-0.8143 0.8457,0.5182 -0.244,1.3149 -0.3378,1.2596 0.9246,0.6178 1.0345,-0.7941 1.1214,-0.7286 0.8024,0.583 -0.3463,1.2917 -0.4356,1.2292 0.8732,0.6885 1.0937,-0.7106 1.1751,-0.6383 0.7542,0.6441 -0.4467,1.2606 -0.5306,1.1913 0.8165,0.7548 1.146,-0.6226 1.2216,-0.5441 0.7013,0.7013 -0.5441,1.2216 -0.6226,1.146 0.7548,0.8165 1.1913,-0.5306 1.2606,-0.4467 0.6441,0.7542 -0.6383,1.1751 -0.7106,1.0937 0.6885,0.8732 1.2292,-0.4356 1.2917,-0.3463 0.583,0.8024 -0.7286,1.1214 -0.7941,1.0345 0.6178,0.9246 1.2596,-0.3378 1.3149,-0.244 0.5182,0.8457 -0.8143,1.0608 -0.8728,0.969 0.5433,0.9702 1.2823,-0.2379 1.3299,-0.1401 0.4503,0.8838 -0.895,0.9936 -0.9462,0.8975 0.4656,1.0099 1.2969,-0.1366 1.3369,-0.0353 0.3795,0.9163 -0.9702,0.9204 -1.0137,0.8205 0.3849,1.0433 1.3037,-0.0344 1.3355,0.0698 0.3065,0.9432 -1.0394,0.8414 -1.075,0.7385 0.3018,1.0702 1.3024,0.068 1.3259,0.1743 0.2316,0.9644 -1.1023,0.7573 -1.1295,0.65184 0.2169,1.0906 1.293,0.16996 1.3082,0.27782 0.1551,0.97959 -1.1583,0.66846 -1.1772,0.56121 0.1307,1.10426 1.2757,0.27089 1.2823,0.3796 0.0778,0.98874 -1.2071,0.57552 -1.2176,0.46712 z"
         id="path1" />
      <circle
         style="fill:#000000;stroke:#000000;stroke-width:0.264583"
         id="path2"
         cx="0"
         cy="0"
         r="5" />
    </g>
  </g>
</svg>
